<svg width="24" height="24" viewBox="0 0 24 24" fill="none" xmlns="http://www.w3.org/2000/svg">
<g id="pepicons-pop:dollar">
<g id="Group">
<path id="Vector" fill-rule="evenodd" clip-rule="evenodd" d="M9.47621 6.84C8.81501 7.3356 8.51621 7.9296 8.51621 8.484C8.51621 9.0396 8.81501 9.6336 9.47621 10.1304C10.1386 10.6272 11.1082 10.9704 12.2302 10.9704C12.5485 10.9704 12.8537 11.0968 13.0787 11.3219C13.3038 11.5469 13.4302 11.8521 13.4302 12.1704C13.4302 12.4887 13.3038 12.7939 13.0787 13.0189C12.8537 13.244 12.5485 13.3704 12.2302 13.3704C10.639 13.3704 9.15221 12.888 8.03621 12.0504C6.92021 11.2128 6.11621 9.9648 6.11621 8.4852C6.11621 7.0044 6.92021 5.7564 8.03621 4.9188C9.15221 4.0824 10.6402 3.6 12.2302 3.6C14.6938 3.6 17.023 4.7796 17.9494 6.744C18.0166 6.88661 18.0551 7.04107 18.0626 7.19855C18.0701 7.35603 18.0465 7.51345 17.9932 7.66182C17.9399 7.81019 17.8579 7.9466 17.7518 8.06327C17.6458 8.17995 17.5178 8.27459 17.3752 8.3418C17.2326 8.40901 17.0781 8.44747 16.9207 8.45499C16.7632 8.46251 16.6058 8.43893 16.4574 8.38561C16.309 8.33229 16.1726 8.25027 16.0559 8.14423C15.9393 8.0382 15.8446 7.91021 15.7774 7.7676C15.3574 6.8712 14.047 6 12.2314 6C11.1094 6 10.1386 6.3432 9.47621 6.84Z" fill="white"/>
<path id="Vector_2" fill-rule="evenodd" clip-rule="evenodd" d="M14.5883 17.4996C15.2495 17.004 15.5471 16.41 15.5471 15.8556C15.5471 15.3 15.2495 14.7048 14.5871 14.2092C13.9259 13.7124 12.9551 13.3692 11.8343 13.3692C11.516 13.3692 11.2108 13.2428 10.9858 13.0177C10.7607 12.7927 10.6343 12.4875 10.6343 12.1692C10.6343 11.8509 10.7607 11.5457 10.9858 11.3207C11.2108 11.0956 11.516 10.9692 11.8343 10.9692C13.4255 10.9692 14.9123 11.4516 16.0283 12.2892C17.1443 13.1268 17.9471 14.3748 17.9471 15.8544C17.9471 17.334 17.1443 18.5832 16.0271 19.4196C14.9111 20.2572 13.4255 20.7396 11.8343 20.7396C9.3707 20.7396 7.0403 19.56 6.1151 17.5944C5.97936 17.3065 5.96354 16.9765 6.07111 16.677C6.17868 16.3775 6.40084 16.1329 6.6887 15.9972C6.97657 15.8615 7.30657 15.8456 7.6061 15.9532C7.90563 16.0608 8.15016 16.2829 8.2859 16.5708C8.7083 17.4684 10.0187 18.3396 11.8343 18.3396C12.9563 18.3396 13.9259 17.9964 14.5883 17.4996ZM11.9999 1.2C12.3182 1.2 12.6234 1.32643 12.8484 1.55147C13.0735 1.77651 13.1999 2.08174 13.1999 2.4V3.6C13.1999 3.91826 13.0735 4.22348 12.8484 4.44853C12.6234 4.67357 12.3182 4.8 11.9999 4.8C11.6816 4.8 11.3764 4.67357 11.1514 4.44853C10.9263 4.22348 10.7999 3.91826 10.7999 3.6V2.4C10.7999 2.08174 10.9263 1.77651 11.1514 1.55147C11.3764 1.32643 11.6816 1.2 11.9999 1.2Z" fill="white"/>
<path id="Vector_3" fill-rule="evenodd" clip-rule="evenodd" d="M11.9998 19.2C12.3181 19.2 12.6233 19.3264 12.8483 19.5515C13.0734 19.7765 13.1998 20.0817 13.1998 20.4V21.6C13.1998 21.9183 13.0734 22.2235 12.8483 22.4485C12.6233 22.6736 12.3181 22.8 11.9998 22.8C11.6815 22.8 11.3763 22.6736 11.1513 22.4485C10.9262 22.2235 10.7998 21.9183 10.7998 21.6V20.4C10.7998 20.0817 10.9262 19.7765 11.1513 19.5515C11.3763 19.3264 11.6815 19.2 11.9998 19.2Z" fill="white"/>
</g>
</g>
</svg>
