<svg width="107" height="46" viewBox="0 0 107 46" fill="none" xmlns="http://www.w3.org/2000/svg">
<path d="M8.424 31.16C7.63467 31.16 7.06933 30.9893 6.728 30.648C6.38667 30.2853 6.216 29.6133 6.216 28.632C6.216 27.9707 6.28 27.1707 6.408 26.232C6.536 25.2933 6.76 23.8747 7.08 21.976C7.12267 21.72 7.29333 20.6853 7.592 18.872C7.89067 17.0373 8.15733 15.1173 8.392 13.112C8.60533 11.4053 8.712 10.1253 8.712 9.272C8.712 8.312 8.36 7.832 7.656 7.832C7.12267 7.832 6.45067 8.12 5.64 8.696C4.85067 9.25067 3.99733 10.1467 3.08 11.384C2.78133 11.7893 2.45067 11.992 2.088 11.992C1.78933 11.992 1.52267 11.8533 1.288 11.576C1.07467 11.2773 0.968 10.9467 0.968 10.584C0.968 10.2213 1.032 9.88 1.16 9.56C1.288 9.21867 1.52267 8.81333 1.864 8.344C2.90933 6.91467 4.072 5.816 5.352 5.048C6.632 4.25867 7.976 3.864 9.384 3.864C10.5573 3.864 11.432 4.22667 12.008 4.952C12.6053 5.67733 12.904 6.73333 12.904 8.12C12.904 9.35733 12.7333 11.1493 12.392 13.496C13.4587 10.3387 14.8133 7.94933 16.456 6.328C18.0987 4.68533 20.0293 3.864 22.248 3.864C23.9973 3.864 25.3093 4.36533 26.184 5.368C27.08 6.34933 27.528 7.672 27.528 9.336C27.528 10.2747 27.3893 11.416 27.112 12.76L25.16 21.912C24.9467 22.9787 24.84 23.896 24.84 24.664C24.84 25.56 25.0427 26.232 25.448 26.68C25.8747 27.128 26.4613 27.352 27.208 27.352C27.912 27.352 28.5947 27.1173 29.256 26.648C29.9387 26.1787 30.7387 25.4 31.656 24.312C31.912 24.0133 32.2 23.864 32.52 23.864C32.7973 23.864 33.0107 23.992 33.16 24.248C33.3307 24.504 33.416 24.856 33.416 25.304C33.416 26.136 33.2133 26.7973 32.808 27.288C31.6987 28.632 30.6 29.6133 29.512 30.232C28.424 30.8507 27.2827 31.16 26.088 31.16C24.2747 31.16 22.856 30.6267 21.832 29.56C20.808 28.472 20.296 27.0213 20.296 25.208C20.296 24.504 20.3493 23.736 20.456 22.904C20.584 22.072 20.7867 21.016 21.064 19.736L22.344 13.88C22.3867 13.688 22.4613 13.3467 22.568 12.856C22.6747 12.3653 22.76 11.9067 22.824 11.48C22.888 11.032 22.92 10.5947 22.92 10.168C22.92 9.48533 22.728 8.94133 22.344 8.536C21.96 8.13067 21.416 7.928 20.712 7.928C19.432 7.928 18.152 8.61067 16.872 9.976C15.592 11.3413 14.408 13.5493 13.32 16.6C12.232 19.6293 11.3787 23.512 10.76 28.248C10.6107 29.336 10.3867 30.0933 10.088 30.52C9.81067 30.9467 9.256 31.16 8.424 31.16ZM57.6653 4.472C58.2626 4.55733 58.6679 4.73867 58.8813 5.016C59.1159 5.29333 59.2333 5.656 59.2333 6.104C59.2333 7.576 58.4439 8.25867 56.8653 8.152L55.7453 8.056C54.4866 7.94933 53.2279 7.864 51.9693 7.8C50.7319 7.736 49.4306 7.704 48.0653 7.704H46.6253C46.3693 10.8613 46.1026 13.7413 45.8253 16.344L51.3293 16.248C52.1186 16.248 52.6413 16.3867 52.8973 16.664C53.1746 16.9413 53.3133 17.3147 53.3133 17.784C53.3133 18.5093 53.0999 19.0853 52.6733 19.512C52.2466 19.9173 51.6386 20.12 50.8493 20.12H45.3773L45.1853 21.496C44.7373 25.016 43.7773 27.5227 42.3053 29.016C40.8546 30.5093 38.8493 31.256 36.2893 31.256C34.8386 31.256 33.5053 30.9467 32.2893 30.328C31.0733 29.688 30.1773 28.92 29.6013 28.024C29.3666 27.6613 29.2492 27.224 29.2492 26.712C29.2492 26.2 29.3666 25.752 29.6013 25.368C29.8573 24.984 30.1666 24.792 30.5293 24.792C30.7853 24.792 31.0306 24.8773 31.2653 25.048C31.5213 25.2187 31.8413 25.5493 32.2253 26.04C33.2493 27.384 34.5186 28.056 36.0333 28.056C37.2493 28.056 38.2626 27.5653 39.0733 26.584C39.9053 25.5813 40.4386 24.0133 40.6733 21.88L40.8653 20.12H39.3293C38.8386 20.12 38.4119 19.9813 38.0493 19.704C37.7079 19.4267 37.5373 19.032 37.5373 18.52C37.5373 17.8587 37.7079 17.3573 38.0493 17.016C38.3906 16.6533 38.8919 16.472 39.5533 16.472C40.1506 16.472 40.7373 16.4613 41.3133 16.44C41.5693 14.0933 41.8466 11.2453 42.1453 7.896C39.8413 8.10933 38.2199 8.48267 37.2812 9.016C36.3426 9.54933 35.8733 10.3387 35.8733 11.384C35.8733 12.1093 36.0866 12.8027 36.5133 13.464C36.6413 13.656 36.7053 13.848 36.7053 14.04C36.7053 14.424 36.4919 14.7653 36.0653 15.064C35.6386 15.3413 35.1586 15.48 34.6253 15.48C34.0493 15.48 33.5586 15.3093 33.1533 14.968C32.8973 14.7547 32.6519 14.3173 32.4173 13.656C32.1826 12.9947 32.0653 12.2587 32.0653 11.448C32.0653 8.80267 33.4199 6.88267 36.1293 5.688C38.8599 4.49333 42.8386 3.896 48.0653 3.896C51.6919 3.896 54.8919 4.088 57.6653 4.472ZM78.9745 4.44C79.6358 4.568 80.1265 4.792 80.4465 5.112C80.7878 5.432 80.9585 5.80533 80.9585 6.232C80.9585 6.936 80.7558 7.448 80.3505 7.768C79.9665 8.088 79.3478 8.216 78.4945 8.152C76.5745 8.00267 75.0705 7.90667 73.9825 7.864C72.9158 7.8 71.5078 7.75733 69.7585 7.736C68.9692 11.6613 68.2438 15.608 67.5825 19.576C67.3478 21.0267 67.1025 22.712 66.8465 24.632C66.5905 26.5307 66.4198 28.0667 66.3345 29.24C66.2918 29.8587 66.0358 30.3387 65.5665 30.68C65.0972 31 64.5318 31.16 63.8705 31.16C63.1665 31.16 62.6225 30.9893 62.2385 30.648C61.8545 30.3067 61.6625 29.8587 61.6625 29.304C61.6625 28.792 61.7372 27.9493 61.8865 26.776C62.0572 25.5813 62.2492 24.3333 62.4625 23.032C62.6972 21.7307 62.8785 20.6 63.0065 19.64C63.2412 18.0187 63.5078 16.408 63.8065 14.808C64.1052 13.208 64.4038 11.6933 64.7025 10.264C64.7665 9.944 64.8412 9.58133 64.9265 9.176C65.0118 8.74933 65.1078 8.28 65.2145 7.768C63.1238 7.832 61.4812 8.00267 60.2865 8.28C59.0918 8.55733 58.2385 8.952 57.7265 9.464C57.2358 9.95467 56.9905 10.5947 56.9905 11.384C56.9905 12.1093 57.2038 12.8027 57.6305 13.464C57.7158 13.6133 57.7585 13.7733 57.7585 13.944C57.7585 14.3493 57.5132 14.7333 57.0225 15.096C56.5532 15.4373 56.0625 15.608 55.5505 15.608C55.1878 15.608 54.8892 15.5013 54.6545 15.288C54.2278 14.9253 53.8758 14.4133 53.5985 13.752C53.3212 13.0693 53.1825 12.3013 53.1825 11.448C53.1825 9.63467 53.7692 8.184 54.9425 7.096C56.1372 5.98667 57.9398 5.176 60.3505 4.664C62.7825 4.152 65.8972 3.896 69.6945 3.896C72.0412 3.896 73.9078 3.93866 75.2945 4.024C76.7025 4.10933 77.9292 4.248 78.9745 4.44ZM79.1343 13.976C78.2383 13.976 77.5663 13.7733 77.1183 13.368C76.6703 12.9413 76.4463 12.3547 76.4463 11.608C76.4463 10.8613 76.7343 10.2427 77.3103 9.752C77.9076 9.24 78.6436 8.984 79.5183 8.984C80.3076 8.984 80.9476 9.176 81.4383 9.56C81.9289 9.944 82.1743 10.488 82.1743 11.192C82.1743 12.0453 81.8969 12.728 81.3423 13.24C80.7876 13.7307 80.0516 13.976 79.1343 13.976ZM78.8783 31.16C77.4916 31.16 76.4783 30.6693 75.8383 29.688C75.2196 28.7067 74.9103 27.4053 74.9103 25.784C74.9103 24.824 75.0276 23.5973 75.2623 22.104C75.5183 20.5893 75.8383 19.1813 76.2223 17.88C76.4143 17.1973 76.6703 16.728 76.9903 16.472C77.3103 16.216 77.8223 16.088 78.5263 16.088C79.6143 16.088 80.1583 16.4507 80.1583 17.176C80.1583 17.7093 79.9556 18.9467 79.5503 20.888C79.0383 23.2347 78.7823 24.824 78.7823 25.656C78.7823 26.296 78.8676 26.7867 79.0383 27.128C79.2089 27.4693 79.4969 27.64 79.9023 27.64C80.2863 27.64 80.7663 27.3733 81.3423 26.84C81.9183 26.3067 82.6863 25.464 83.6463 24.312C83.9023 24.0133 84.1903 23.864 84.5103 23.864C84.7876 23.864 85.0009 23.992 85.1503 24.248C85.3209 24.504 85.4063 24.856 85.4063 25.304C85.4063 26.1573 85.2036 26.8187 84.7983 27.288C82.6863 29.8693 80.7129 31.16 78.8783 31.16ZM95.2728 22.04C95.8701 22.04 96.1688 22.488 96.1688 23.384C96.1688 25.0693 94.8461 25.912 92.2008 25.912C91.6888 25.912 90.9528 25.816 89.9928 25.624C90.2701 26.9467 90.4941 28.4187 90.6648 30.04C90.8568 31.64 90.9528 32.9627 90.9528 34.008C90.9528 36.312 90.5794 38.072 89.8328 39.288C89.0861 40.504 88.1048 41.112 86.8888 41.112C85.3528 41.112 84.2541 40.024 83.5928 37.848C82.9528 35.672 82.6328 32.3867 82.6328 27.992C82.6328 23.896 83.0701 19.7467 83.9448 15.544C84.8408 11.32 86.0568 7.832 87.5928 5.08C89.1501 2.30666 90.8568 0.919998 92.7128 0.919998C93.7154 0.919998 94.4941 1.368 95.0488 2.264C95.6248 3.16 95.9128 4.36533 95.9128 5.88C95.9128 10.8933 92.9154 16.3547 86.9208 22.264C86.7074 24.3547 86.6008 26.1893 86.6008 27.768C86.6008 29.9653 86.6754 32.216 86.8248 34.52C86.9741 36.8453 87.2194 38.008 87.5608 38.008C88.2008 38.008 88.5208 36.8987 88.5208 34.68C88.5208 33.016 88.4034 31.4053 88.1688 29.848C87.9554 28.2907 87.6568 26.648 87.2728 24.92C87.2514 24.6427 87.3368 24.2907 87.5288 23.864C87.7421 23.4373 87.9981 23.064 88.2968 22.744C88.5954 22.424 88.8621 22.264 89.0968 22.264C89.5234 22.264 90.0354 22.2853 90.6328 22.328C90.8248 22.3493 91.0488 22.36 91.3048 22.36C92.1581 22.36 93.1074 22.2853 94.1528 22.136C94.3234 22.1147 94.5048 22.0933 94.6968 22.072C94.8888 22.0507 95.0808 22.04 95.2728 22.04ZM92.0408 4.088C91.6568 4.088 91.1768 4.73867 90.6008 6.04C90.0461 7.34133 89.4914 9.06933 88.9368 11.224C88.3821 13.3573 87.9021 15.6187 87.4968 18.008C89.2034 16.0667 90.5154 14.0507 91.4328 11.96C92.3501 9.848 92.8194 7.87467 92.8408 6.04C92.8408 4.73867 92.5741 4.088 92.0408 4.088ZM104.955 16.088C105.445 16.088 105.787 16.152 105.979 16.28C106.171 16.408 106.267 16.6213 106.267 16.92C106.267 17.432 105.989 19.256 105.435 22.392C104.944 25.4 104.656 27.1813 104.571 27.736C103.781 33.2187 102.693 37.56 101.307 40.76C99.9201 43.96 98.0748 45.56 95.7708 45.56C94.6828 45.56 93.7974 45.2187 93.1148 44.536C92.4321 43.8747 92.0907 43 92.0907 41.912C92.0907 40.9093 92.3148 39.8853 92.7628 38.84C93.2321 37.7947 94.0854 36.5893 95.3228 35.224C96.5814 33.88 98.3521 32.3333 100.635 30.584L100.731 29.848C100.88 29.0587 101.051 27.928 101.243 26.456C100.816 27.992 100.219 29.1653 99.4508 29.976C98.6828 30.7653 97.8721 31.16 97.0188 31.16C96.0588 31.16 95.2694 30.7227 94.6508 29.848C94.0534 28.952 93.7548 27.8427 93.7548 26.52C93.7548 24.92 93.8614 23.4587 94.0748 22.136C94.2881 20.792 94.6401 19.3733 95.1308 17.88C95.3441 17.24 95.6428 16.7813 96.0268 16.504C96.4108 16.2267 97.0188 16.088 97.8508 16.088C98.3201 16.088 98.6401 16.1627 98.8108 16.312C99.0028 16.4613 99.0988 16.6853 99.0988 16.984C99.0988 17.1547 98.9814 17.7307 98.7468 18.712C98.5334 19.5013 98.3628 20.216 98.2348 20.856C98.0641 21.7307 97.9148 22.5733 97.7868 23.384C97.6588 24.1733 97.5948 24.824 97.5948 25.336C97.5948 26.1467 97.8188 26.552 98.2668 26.552C98.5868 26.552 98.9814 26.232 99.4508 25.592C99.9414 24.952 100.453 23.9813 100.987 22.68C101.541 21.3787 102.075 19.7787 102.587 17.88C102.757 17.24 103.013 16.7813 103.355 16.504C103.717 16.2267 104.251 16.088 104.955 16.088ZM96.1228 42.456C96.6561 42.456 97.2534 41.8373 97.9148 40.6C98.5761 39.3627 99.2374 37.304 99.8988 34.424C98.2561 35.8107 97.0614 37.0693 96.3148 38.2C95.5894 39.352 95.2268 40.3547 95.2268 41.208C95.2268 41.5707 95.2908 41.8693 95.4188 42.104C95.5681 42.3387 95.8028 42.456 96.1228 42.456Z" fill="white" fill-opacity="0.7"/>
</svg>
